<mxfile host="app.diagrams.net" modified="2024-06-23T11:13:53.222Z" agent="Mozilla/5.0 (Windows NT 10.0; Win64; x64) AppleWebKit/537.36 (KHTML, like Gecko) Chrome/126.0.0.0 Safari/537.36" etag="7enA8lUxbMzlVsm5PZFx" version="24.6.2" type="github">
  <diagram name="Halaman-1" id="mc8gcB1ZVPnBZrRa7C_h">
    <mxGraphModel dx="1334" dy="544" grid="0" gridSize="10" guides="1" tooltips="1" connect="1" arrows="1" fold="1" page="0" pageScale="1" pageWidth="827" pageHeight="1169" math="0" shadow="0">
      <root>
        <mxCell id="0" />
        <mxCell id="1" parent="0" />
        <mxCell id="503pEslo4B4ITY5q5H-f-1" value="Actor" style="shape=umlActor;verticalLabelPosition=bottom;verticalAlign=top;html=1;outlineConnect=0;" vertex="1" parent="1">
          <mxGeometry x="-92" y="139" width="30" height="60" as="geometry" />
        </mxCell>
        <mxCell id="503pEslo4B4ITY5q5H-f-2" value="Landing page" style="ellipse;whiteSpace=wrap;html=1;" vertex="1" parent="1">
          <mxGeometry x="65" y="66" width="87" height="58" as="geometry" />
        </mxCell>
        <mxCell id="503pEslo4B4ITY5q5H-f-3" value="Lihat peta" style="ellipse;whiteSpace=wrap;html=1;" vertex="1" parent="1">
          <mxGeometry x="58" y="194" width="87" height="58" as="geometry" />
        </mxCell>
        <mxCell id="503pEslo4B4ITY5q5H-f-8" value="" style="endArrow=none;html=1;rounded=0;fontSize=12;startSize=8;endSize=8;curved=1;exitX=1;exitY=0.3333333333333333;exitDx=0;exitDy=0;exitPerimeter=0;entryX=0;entryY=0.5;entryDx=0;entryDy=0;" edge="1" parent="1" source="503pEslo4B4ITY5q5H-f-1" target="503pEslo4B4ITY5q5H-f-2">
          <mxGeometry width="50" height="50" relative="1" as="geometry">
            <mxPoint x="175" y="115" as="sourcePoint" />
            <mxPoint x="225" y="65" as="targetPoint" />
          </mxGeometry>
        </mxCell>
        <mxCell id="503pEslo4B4ITY5q5H-f-9" value="" style="endArrow=none;html=1;rounded=0;fontSize=12;startSize=8;endSize=8;curved=1;exitX=1;exitY=0.3333333333333333;exitDx=0;exitDy=0;exitPerimeter=0;entryX=0;entryY=0.5;entryDx=0;entryDy=0;" edge="1" parent="1" source="503pEslo4B4ITY5q5H-f-1" target="503pEslo4B4ITY5q5H-f-3">
          <mxGeometry width="50" height="50" relative="1" as="geometry">
            <mxPoint x="175" y="115" as="sourcePoint" />
            <mxPoint x="225" y="65" as="targetPoint" />
          </mxGeometry>
        </mxCell>
        <mxCell id="503pEslo4B4ITY5q5H-f-10" value="Lihat peta" style="ellipse;whiteSpace=wrap;html=1;" vertex="1" parent="1">
          <mxGeometry x="262" y="194" width="95" height="58" as="geometry" />
        </mxCell>
        <mxCell id="503pEslo4B4ITY5q5H-f-12" value="" style="endArrow=none;dashed=1;html=1;dashPattern=1 3;strokeWidth=2;rounded=0;fontSize=12;startSize=8;endSize=8;curved=1;exitX=1;exitY=0.5;exitDx=0;exitDy=0;entryX=0;entryY=0.5;entryDx=0;entryDy=0;" edge="1" parent="1" source="503pEslo4B4ITY5q5H-f-3" target="503pEslo4B4ITY5q5H-f-10">
          <mxGeometry width="50" height="50" relative="1" as="geometry">
            <mxPoint x="175" y="115" as="sourcePoint" />
            <mxPoint x="225" y="65" as="targetPoint" />
          </mxGeometry>
        </mxCell>
        <mxCell id="503pEslo4B4ITY5q5H-f-13" value="&amp;lt;include&amp;gt;" style="edgeLabel;html=1;align=center;verticalAlign=middle;resizable=0;points=[];fontSize=12;" vertex="1" connectable="0" parent="503pEslo4B4ITY5q5H-f-12">
          <mxGeometry x="-0.0826" relative="1" as="geometry">
            <mxPoint as="offset" />
          </mxGeometry>
        </mxCell>
        <mxCell id="503pEslo4B4ITY5q5H-f-14" value="Detail umkm" style="ellipse;whiteSpace=wrap;html=1;" vertex="1" parent="1">
          <mxGeometry x="474" y="194" width="87" height="58" as="geometry" />
        </mxCell>
        <mxCell id="503pEslo4B4ITY5q5H-f-17" value="" style="endArrow=none;dashed=1;html=1;dashPattern=1 3;strokeWidth=2;rounded=0;fontSize=12;startSize=8;endSize=8;curved=1;exitX=1;exitY=0.5;exitDx=0;exitDy=0;entryX=0;entryY=0.5;entryDx=0;entryDy=0;" edge="1" parent="1" source="503pEslo4B4ITY5q5H-f-10" target="503pEslo4B4ITY5q5H-f-14">
          <mxGeometry width="50" height="50" relative="1" as="geometry">
            <mxPoint x="394" y="276" as="sourcePoint" />
            <mxPoint x="511" y="276" as="targetPoint" />
          </mxGeometry>
        </mxCell>
        <mxCell id="503pEslo4B4ITY5q5H-f-18" value="&amp;lt;include&amp;gt;" style="edgeLabel;html=1;align=center;verticalAlign=middle;resizable=0;points=[];fontSize=12;" vertex="1" connectable="0" parent="503pEslo4B4ITY5q5H-f-17">
          <mxGeometry x="-0.0826" relative="1" as="geometry">
            <mxPoint as="offset" />
          </mxGeometry>
        </mxCell>
      </root>
    </mxGraphModel>
  </diagram>
</mxfile>
